<svg xmlns="http://www.w3.org/2000/svg" width="1320" height="1897" viewBox="0 0 1320 1897">
<rect width="100%" height="100%" fill="#ffffff"/>
<text x="24" y="34" font-family="Arial" font-size="22" font-weight="700">Primary Metric: Ours vs Baselines</text>
<text x="24" y="72" font-family="Arial" font-size="17" font-weight="700">ALFWorld dense prefixes</text>
<text x="34" y="115" font-family="Arial" font-size="13">TRACE-H branch-race ledger (ours)</text>
<rect x="250" y="100" width="569.78" height="20" fill="#1f77b4" rx="2"/>
<text x="827.78" y="115" font-family="Arial" font-size="13">0.576</text>
<text x="34" y="144" font-family="Arial" font-size="13">source-prioritized exhaustive sweep (ablation)</text>
<rect x="250" y="129" width="548.42" height="20" fill="#b7791f" rx="2"/>
<text x="806.42" y="144" font-family="Arial" font-size="13">0.554</text>
<text x="34" y="173" font-family="Arial" font-size="13">baseline-only branch race (baseline)</text>
<rect x="250" y="158" width="448.71" height="20" fill="#7f7f7f" rx="2"/>
<text x="706.71" y="173" font-family="Arial" font-size="13">0.453</text>
<text x="34" y="202" font-family="Arial" font-size="13">source-first no horizon switch (ablation)</text>
<rect x="250" y="187" width="434.46" height="20" fill="#b7791f" rx="2"/>
<text x="692.46" y="202" font-family="Arial" font-size="13">0.439</text>
<text x="34" y="231" font-family="Arial" font-size="13">no history ledger (ablation)</text>
<rect x="250" y="216" width="434.46" height="20" fill="#b7791f" rx="2"/>
<text x="692.46" y="231" font-family="Arial" font-size="13">0.439</text>
<text x="34" y="260" font-family="Arial" font-size="13">no inventory inference (ablation)</text>
<rect x="250" y="245" width="434.46" height="20" fill="#b7791f" rx="2"/>
<text x="692.46" y="260" font-family="Arial" font-size="13">0.439</text>
<text x="34" y="289" font-family="Arial" font-size="13">alphabetical macro (baseline)</text>
<rect x="250" y="274" width="420.22" height="20" fill="#7f7f7f" rx="2"/>
<text x="678.22" y="289" font-family="Arial" font-size="13">0.424</text>
<text x="34" y="318" font-family="Arial" font-size="13">reverse-container macro (baseline)</text>
<rect x="250" y="303" width="391.73" height="20" fill="#7f7f7f" rx="2"/>
<text x="649.73" y="318" font-family="Arial" font-size="13">0.396</text>
<text x="34" y="347" font-family="Arial" font-size="13">furniture-first macro (baseline)</text>
<rect x="250" y="332" width="391.73" height="20" fill="#7f7f7f" rx="2"/>
<text x="649.73" y="347" font-family="Arial" font-size="13">0.396</text>
<text x="34" y="376" font-family="Arial" font-size="13">target-first macro (baseline)</text>
<rect x="250" y="361" width="384.60" height="20" fill="#7f7f7f" rx="2"/>
<text x="642.60" y="376" font-family="Arial" font-size="13">0.388</text>
<text x="34" y="405" font-family="Arial" font-size="13">container-first macro (baseline)</text>
<rect x="250" y="390" width="384.60" height="20" fill="#7f7f7f" rx="2"/>
<text x="642.60" y="405" font-family="Arial" font-size="13">0.388</text>
<text x="34" y="434" font-family="Arial" font-size="13">no deposit lock (ablation)</text>
<rect x="250" y="419" width="377.48" height="20" fill="#b7791f" rx="2"/>
<text x="635.48" y="434" font-family="Arial" font-size="13">0.381</text>
<text x="34" y="463" font-family="Arial" font-size="13">no instance ledger (ablation)</text>
<rect x="250" y="448" width="220.79" height="20" fill="#b7791f" rx="2"/>
<text x="478.79" y="463" font-family="Arial" font-size="13">0.223</text>
<text x="34" y="492" font-family="Arial" font-size="13">NONE / source policy (baseline)</text>
<rect x="250" y="477" width="192.30" height="20" fill="#7f7f7f" rx="2"/>
<text x="450.30" y="492" font-family="Arial" font-size="13">0.194</text>
<text x="34" y="521" font-family="Arial" font-size="13">kitchen-first macro (baseline)</text>
<rect x="250" y="506" width="135.32" height="20" fill="#7f7f7f" rx="2"/>
<text x="393.32" y="521" font-family="Arial" font-size="13">0.137</text>
<text x="24" y="560" font-family="Arial" font-size="17" font-weight="700">HarnessBench endpoint outcome subset</text>
<text x="34" y="603" font-family="Arial" font-size="13">TRACE-H endpoint ledger (ours)</text>
<rect x="250" y="588" width="990.00" height="20" fill="#1f77b4" rx="2"/>
<text x="1248.00" y="603" font-family="Arial" font-size="13">1.000</text>
<text x="34" y="632" font-family="Arial" font-size="13">narrow file/email tool (baseline)</text>
<rect x="250" y="617" width="385.37" height="20" fill="#7f7f7f" rx="2"/>
<text x="643.37" y="632" font-family="Arial" font-size="13">0.389</text>
<text x="34" y="661" font-family="Arial" font-size="13">HarnessBench demo adapter (baseline)</text>
<rect x="250" y="646" width="373.58" height="20" fill="#7f7f7f" rx="2"/>
<text x="631.58" y="661" font-family="Arial" font-size="13">0.377</text>
<text x="34" y="690" font-family="Arial" font-size="13">prompt-literal stub (baseline)</text>
<rect x="250" y="675" width="340.58" height="20" fill="#7f7f7f" rx="2"/>
<text x="598.58" y="690" font-family="Arial" font-size="13">0.344</text>
<text x="34" y="719" font-family="Arial" font-size="13">schema-only stubs (baseline)</text>
<rect x="250" y="704" width="274.58" height="20" fill="#7f7f7f" rx="2"/>
<text x="532.58" y="719" font-family="Arial" font-size="13">0.277</text>
<text x="34" y="748" font-family="Arial" font-size="13">no output (baseline)</text>
<rect x="250" y="733" width="73.95" height="20" fill="#7f7f7f" rx="2"/>
<text x="331.95" y="748" font-family="Arial" font-size="13">0.075</text>
<text x="34" y="777" font-family="Arial" font-size="13">fixture copy/no transform (baseline)</text>
<rect x="250" y="762" width="73.95" height="20" fill="#7f7f7f" rx="2"/>
<text x="331.95" y="777" font-family="Arial" font-size="13">0.075</text>
<text x="24" y="816" font-family="Arial" font-size="17" font-weight="700">Synthetic mechanism design</text>
<text x="34" y="859" font-family="Arial" font-size="13">TRACE-H bundle conservative (ours)</text>
<rect x="250" y="844" width="712.80" height="20" fill="#1f77b4" rx="2"/>
<text x="970.80" y="859" font-family="Arial" font-size="13">0.720</text>
<text x="34" y="888" font-family="Arial" font-size="13">precondition check (baseline)</text>
<rect x="250" y="873" width="525.53" height="20" fill="#7f7f7f" rx="2"/>
<text x="783.53" y="888" font-family="Arial" font-size="13">0.531</text>
<text x="34" y="917" font-family="Arial" font-size="13">subgoal ledger (baseline)</text>
<rect x="250" y="902" width="305.66" height="20" fill="#7f7f7f" rx="2"/>
<text x="563.66" y="917" font-family="Arial" font-size="13">0.309</text>
<text x="34" y="946" font-family="Arial" font-size="13">anti-loop retry (baseline)</text>
<rect x="250" y="931" width="30.53" height="20" fill="#7f7f7f" rx="2"/>
<text x="288.53" y="946" font-family="Arial" font-size="13">0.031</text>
<text x="34" y="975" font-family="Arial" font-size="13">natural REPLAN (baseline)</text>
<rect x="250" y="960" width="15.68" height="20" fill="#7f7f7f" rx="2"/>
<text x="273.68" y="975" font-family="Arial" font-size="13">0.016</text>
<text x="24" y="1014" font-family="Arial" font-size="17" font-weight="700">Synthetic transport stress</text>
<text x="34" y="1057" font-family="Arial" font-size="13">TRACE-H partial OT-LCB (ours)</text>
<rect x="250" y="1042" width="814.28" height="20" fill="#1f77b4" rx="2"/>
<text x="1072.28" y="1057" font-family="Arial" font-size="13">0.823</text>
<text x="34" y="1086" font-family="Arial" font-size="13">balanced OT-LCB (baseline)</text>
<rect x="250" y="1071" width="752.36" height="20" fill="#7f7f7f" rx="2"/>
<text x="1010.36" y="1086" font-family="Arial" font-size="13">0.760</text>
<text x="34" y="1115" font-family="Arial" font-size="13">best fixed source mean (baseline)</text>
<rect x="250" y="1100" width="750.54" height="20" fill="#7f7f7f" rx="2"/>
<text x="1008.54" y="1115" font-family="Arial" font-size="13">0.758</text>
<text x="34" y="1144" font-family="Arial" font-size="13">fixed bundle (baseline)</text>
<rect x="250" y="1129" width="750.54" height="20" fill="#7f7f7f" rx="2"/>
<text x="1008.54" y="1144" font-family="Arial" font-size="13">0.758</text>
<text x="34" y="1173" font-family="Arial" font-size="13">kNN response transfer (baseline)</text>
<rect x="250" y="1158" width="626.33" height="20" fill="#7f7f7f" rx="2"/>
<text x="884.33" y="1173" font-family="Arial" font-size="13">0.633</text>
<text x="24" y="1212" font-family="Arial" font-size="17" font-weight="700">WebShop-small interactive text</text>
<text x="34" y="1255" font-family="Arial" font-size="13">TRACE-H constraint+query ledger (ours)</text>
<rect x="250" y="1240" width="941.51" height="20" fill="#1f77b4" rx="2"/>
<text x="1199.51" y="1255" font-family="Arial" font-size="13">0.951</text>
<text x="34" y="1284" font-family="Arial" font-size="13">all-text overlap after full search (baseline)</text>
<rect x="250" y="1269" width="804.61" height="20" fill="#7f7f7f" rx="2"/>
<text x="1062.61" y="1284" font-family="Arial" font-size="13">0.813</text>
<text x="34" y="1313" font-family="Arial" font-size="13">attribute overlap after attr search (baseline)</text>
<rect x="250" y="1298" width="779.62" height="20" fill="#7f7f7f" rx="2"/>
<text x="1037.62" y="1313" font-family="Arial" font-size="13">0.787</text>
<text x="34" y="1342" font-family="Arial" font-size="13">rarest-attribute anchor (baseline)</text>
<rect x="250" y="1327" width="779.62" height="20" fill="#7f7f7f" rx="2"/>
<text x="1037.62" y="1342" font-family="Arial" font-size="13">0.787</text>
<text x="34" y="1371" font-family="Arial" font-size="13">BM25 full instruction (baseline)</text>
<rect x="250" y="1356" width="776.57" height="20" fill="#7f7f7f" rx="2"/>
<text x="1034.57" y="1371" font-family="Arial" font-size="13">0.784</text>
<text x="34" y="1400" font-family="Arial" font-size="13">description overlap after full search (baseline)</text>
<rect x="250" y="1385" width="660.33" height="20" fill="#7f7f7f" rx="2"/>
<text x="918.33" y="1400" font-family="Arial" font-size="13">0.667</text>
<text x="34" y="1429" font-family="Arial" font-size="13">title overlap after full search (baseline)</text>
<rect x="250" y="1414" width="418.33" height="20" fill="#7f7f7f" rx="2"/>
<text x="676.33" y="1429" font-family="Arial" font-size="13">0.423</text>
<text x="34" y="1458" font-family="Arial" font-size="13">BM25 attribute query (baseline)</text>
<rect x="250" y="1443" width="412.03" height="20" fill="#7f7f7f" rx="2"/>
<text x="670.03" y="1458" font-family="Arial" font-size="13">0.416</text>
<text x="34" y="1487" font-family="Arial" font-size="13">random top-10 after full search (baseline)</text>
<rect x="250" y="1472" width="372.34" height="20" fill="#7f7f7f" rx="2"/>
<text x="630.34" y="1487" font-family="Arial" font-size="13">0.376</text>
<text x="34" y="1516" font-family="Arial" font-size="13">BM25 core query (baseline)</text>
<rect x="250" y="1501" width="275.64" height="20" fill="#7f7f7f" rx="2"/>
<text x="533.64" y="1516" font-family="Arial" font-size="13">0.278</text>
<text x="24" y="1555" font-family="Arial" font-size="17" font-weight="700">WebShop-small static product selection</text>
<text x="34" y="1598" font-family="Arial" font-size="13">TRACE-H constraint+query ledger (ours)</text>
<rect x="250" y="1583" width="932.75" height="20" fill="#1f77b4" rx="2"/>
<text x="1190.75" y="1598" font-family="Arial" font-size="13">0.942</text>
<text x="34" y="1627" font-family="Arial" font-size="13">BM25 all text (baseline)</text>
<rect x="250" y="1612" width="861.18" height="20" fill="#7f7f7f" rx="2"/>
<text x="1119.18" y="1627" font-family="Arial" font-size="13">0.870</text>
<text x="34" y="1656" font-family="Arial" font-size="13">all-text lexical overlap (baseline)</text>
<rect x="250" y="1641" width="815.86" height="20" fill="#7f7f7f" rx="2"/>
<text x="1073.86" y="1656" font-family="Arial" font-size="13">0.824</text>
<text x="34" y="1685" font-family="Arial" font-size="13">attribute constraint overlap (baseline)</text>
<rect x="250" y="1670" width="782.46" height="20" fill="#7f7f7f" rx="2"/>
<text x="1040.46" y="1685" font-family="Arial" font-size="13">0.790</text>
<text x="34" y="1714" font-family="Arial" font-size="13">rarest-attribute anchor (baseline)</text>
<rect x="250" y="1699" width="782.46" height="20" fill="#7f7f7f" rx="2"/>
<text x="1040.46" y="1714" font-family="Arial" font-size="13">0.790</text>
<text x="34" y="1743" font-family="Arial" font-size="13">description lexical overlap (baseline)</text>
<rect x="250" y="1728" width="531.98" height="20" fill="#7f7f7f" rx="2"/>
<text x="789.98" y="1743" font-family="Arial" font-size="13">0.537</text>
<text x="34" y="1772" font-family="Arial" font-size="13">BM25 title+category (baseline)</text>
<rect x="250" y="1757" width="460.41" height="20" fill="#7f7f7f" rx="2"/>
<text x="718.41" y="1772" font-family="Arial" font-size="13">0.465</text>
<text x="34" y="1801" font-family="Arial" font-size="13">title lexical overlap (baseline)</text>
<rect x="250" y="1786" width="293.42" height="20" fill="#7f7f7f" rx="2"/>
<text x="551.42" y="1801" font-family="Arial" font-size="13">0.296</text>
<text x="34" y="1830" font-family="Arial" font-size="13">category/query lexical overlap (baseline)</text>
<rect x="250" y="1815" width="202.77" height="20" fill="#7f7f7f" rx="2"/>
<text x="460.77" y="1830" font-family="Arial" font-size="13">0.205</text>
</svg>
