<svg xmlns="http://www.w3.org/2000/svg" width="1320" height="1172" viewBox="0 0 1320 1172">
<rect width="100%" height="100%" fill="#ffffff"/>
<text x="24" y="34" font-family="Arial" font-size="22" font-weight="700">Holdout Primary Metric: Fixed Split Audit</text>
<text x="24" y="72" font-family="Arial" font-size="17" font-weight="700">ALFWorld dense prefixes</text>
<text x="34" y="115" font-family="Arial" font-size="13">source-prioritized exhaustive sweep (ablation)</text>
<rect x="280" y="100" width="502.86" height="20" fill="#b7791f" rx="2"/>
<text x="790.86" y="115" font-family="Arial" font-size="13">0.524</text>
<text x="34" y="144" font-family="Arial" font-size="13">TRACE-H branch-race ledger (ours)</text>
<rect x="280" y="129" width="502.86" height="20" fill="#1f77b4" rx="2"/>
<text x="790.86" y="144" font-family="Arial" font-size="13">0.524</text>
<text x="34" y="173" font-family="Arial" font-size="13">baseline-only branch race (baseline)</text>
<rect x="280" y="158" width="377.14" height="20" fill="#7f7f7f" rx="2"/>
<text x="665.14" y="173" font-family="Arial" font-size="13">0.393</text>
<text x="34" y="202" font-family="Arial" font-size="13">source-first no horizon switch (ablation)</text>
<rect x="280" y="187" width="377.14" height="20" fill="#b7791f" rx="2"/>
<text x="665.14" y="202" font-family="Arial" font-size="13">0.393</text>
<text x="34" y="231" font-family="Arial" font-size="13">no history ledger (ablation)</text>
<rect x="280" y="216" width="377.14" height="20" fill="#b7791f" rx="2"/>
<text x="665.14" y="231" font-family="Arial" font-size="13">0.393</text>
<text x="34" y="260" font-family="Arial" font-size="13">no deposit lock (ablation)</text>
<rect x="280" y="245" width="377.14" height="20" fill="#b7791f" rx="2"/>
<text x="665.14" y="260" font-family="Arial" font-size="13">0.393</text>
<text x="34" y="289" font-family="Arial" font-size="13">no inventory inference (ablation)</text>
<rect x="280" y="274" width="377.14" height="20" fill="#b7791f" rx="2"/>
<text x="665.14" y="289" font-family="Arial" font-size="13">0.393</text>
<text x="34" y="318" font-family="Arial" font-size="13">alphabetical macro (baseline)</text>
<rect x="280" y="303" width="365.71" height="20" fill="#7f7f7f" rx="2"/>
<text x="653.71" y="318" font-family="Arial" font-size="13">0.381</text>
<text x="34" y="347" font-family="Arial" font-size="13">target-first macro (baseline)</text>
<rect x="280" y="332" width="308.57" height="20" fill="#7f7f7f" rx="2"/>
<text x="596.57" y="347" font-family="Arial" font-size="13">0.321</text>
<text x="34" y="376" font-family="Arial" font-size="13">container-first macro (baseline)</text>
<rect x="280" y="361" width="308.57" height="20" fill="#7f7f7f" rx="2"/>
<text x="596.57" y="376" font-family="Arial" font-size="13">0.321</text>
<text x="34" y="405" font-family="Arial" font-size="13">reverse-container macro (baseline)</text>
<rect x="280" y="390" width="308.57" height="20" fill="#7f7f7f" rx="2"/>
<text x="596.57" y="405" font-family="Arial" font-size="13">0.321</text>
<text x="34" y="434" font-family="Arial" font-size="13">furniture-first macro (baseline)</text>
<rect x="280" y="419" width="308.57" height="20" fill="#7f7f7f" rx="2"/>
<text x="596.57" y="434" font-family="Arial" font-size="13">0.321</text>
<text x="34" y="463" font-family="Arial" font-size="13">NONE / source policy (baseline)</text>
<rect x="280" y="448" width="240.00" height="20" fill="#7f7f7f" rx="2"/>
<text x="528.00" y="463" font-family="Arial" font-size="13">0.250</text>
<text x="34" y="492" font-family="Arial" font-size="13">kitchen-first macro (baseline)</text>
<rect x="280" y="477" width="205.71" height="20" fill="#7f7f7f" rx="2"/>
<text x="493.71" y="492" font-family="Arial" font-size="13">0.214</text>
<text x="34" y="521" font-family="Arial" font-size="13">no instance ledger (ablation)</text>
<rect x="280" y="506" width="125.71" height="20" fill="#b7791f" rx="2"/>
<text x="413.71" y="521" font-family="Arial" font-size="13">0.131</text>
<text x="24" y="560" font-family="Arial" font-size="17" font-weight="700">HarnessBench endpoint outcome subset</text>
<text x="34" y="603" font-family="Arial" font-size="13">TRACE-H endpoint ledger (ours)</text>
<rect x="280" y="588" width="960.00" height="20" fill="#1f77b4" rx="2"/>
<text x="1248.00" y="603" font-family="Arial" font-size="13">1.000</text>
<text x="34" y="632" font-family="Arial" font-size="13">prompt-literal stub (baseline)</text>
<rect x="280" y="617" width="338.37" height="20" fill="#7f7f7f" rx="2"/>
<text x="626.37" y="632" font-family="Arial" font-size="13">0.352</text>
<text x="34" y="661" font-family="Arial" font-size="13">narrow file/email tool (baseline)</text>
<rect x="280" y="646" width="310.32" height="20" fill="#7f7f7f" rx="2"/>
<text x="598.32" y="661" font-family="Arial" font-size="13">0.323</text>
<text x="34" y="690" font-family="Arial" font-size="13">HarnessBench demo adapter (baseline)</text>
<rect x="280" y="675" width="294.73" height="20" fill="#7f7f7f" rx="2"/>
<text x="582.73" y="690" font-family="Arial" font-size="13">0.307</text>
<text x="34" y="719" font-family="Arial" font-size="13">schema-only stubs (baseline)</text>
<rect x="280" y="704" width="251.10" height="20" fill="#7f7f7f" rx="2"/>
<text x="539.10" y="719" font-family="Arial" font-size="13">0.262</text>
<text x="34" y="748" font-family="Arial" font-size="13">no output (baseline)</text>
<rect x="280" y="733" width="79.62" height="20" fill="#7f7f7f" rx="2"/>
<text x="367.62" y="748" font-family="Arial" font-size="13">0.083</text>
<text x="34" y="777" font-family="Arial" font-size="13">fixture copy/no transform (baseline)</text>
<rect x="280" y="762" width="79.62" height="20" fill="#7f7f7f" rx="2"/>
<text x="367.62" y="777" font-family="Arial" font-size="13">0.083</text>
<text x="24" y="816" font-family="Arial" font-size="17" font-weight="700">WebShop-small interactive text</text>
<text x="34" y="859" font-family="Arial" font-size="13">TRACE-H constraint+query ledger (ours)</text>
<rect x="280" y="844" width="914.14" height="20" fill="#1f77b4" rx="2"/>
<text x="1202.14" y="859" font-family="Arial" font-size="13">0.952</text>
<text x="34" y="888" font-family="Arial" font-size="13">all-text overlap after full search (baseline)</text>
<rect x="280" y="873" width="782.65" height="20" fill="#7f7f7f" rx="2"/>
<text x="1070.65" y="888" font-family="Arial" font-size="13">0.815</text>
<text x="34" y="917" font-family="Arial" font-size="13">attribute overlap after attr search (baseline)</text>
<rect x="280" y="902" width="757.00" height="20" fill="#7f7f7f" rx="2"/>
<text x="1045.00" y="917" font-family="Arial" font-size="13">0.789</text>
<text x="34" y="946" font-family="Arial" font-size="13">rarest-attribute anchor (baseline)</text>
<rect x="280" y="931" width="757.00" height="20" fill="#7f7f7f" rx="2"/>
<text x="1045.00" y="946" font-family="Arial" font-size="13">0.789</text>
<text x="34" y="975" font-family="Arial" font-size="13">BM25 full instruction (baseline)</text>
<rect x="280" y="960" width="750.84" height="20" fill="#7f7f7f" rx="2"/>
<text x="1038.84" y="975" font-family="Arial" font-size="13">0.782</text>
<text x="34" y="1004" font-family="Arial" font-size="13">description overlap after full search (baseline)</text>
<rect x="280" y="989" width="634.26" height="20" fill="#7f7f7f" rx="2"/>
<text x="922.26" y="1004" font-family="Arial" font-size="13">0.661</text>
<text x="34" y="1033" font-family="Arial" font-size="13">BM25 attribute query (baseline)</text>
<rect x="280" y="1018" width="404.84" height="20" fill="#7f7f7f" rx="2"/>
<text x="692.84" y="1033" font-family="Arial" font-size="13">0.422</text>
<text x="34" y="1062" font-family="Arial" font-size="13">title overlap after full search (baseline)</text>
<rect x="280" y="1047" width="401.55" height="20" fill="#7f7f7f" rx="2"/>
<text x="689.55" y="1062" font-family="Arial" font-size="13">0.418</text>
<text x="34" y="1091" font-family="Arial" font-size="13">random top-10 after full search (baseline)</text>
<rect x="280" y="1076" width="361.38" height="20" fill="#7f7f7f" rx="2"/>
<text x="649.38" y="1091" font-family="Arial" font-size="13">0.376</text>
<text x="34" y="1120" font-family="Arial" font-size="13">BM25 core query (baseline)</text>
<rect x="280" y="1105" width="265.60" height="20" fill="#7f7f7f" rx="2"/>
<text x="553.60" y="1120" font-family="Arial" font-size="13">0.277</text>
</svg>
